<?xml version="1.0" encoding="utf-8"?>
<!-- Generator: Adobe Illustrator 27.9.0, SVG Export Plug-In . SVG Version: 6.00 Build 0)  -->
<svg version="1.1" id="Layer_1" xmlns="http://www.w3.org/2000/svg" xmlns:xlink="http://www.w3.org/1999/xlink" x="0px" y="0px"
	 viewBox="0 0 149 36" style="enable-background:new 0 0 149 36;" xml:space="preserve">
<style type="text/css">
	.st0{fill:#F14236;}
	.st1{fill:#343434;}
	.st2{fill:#333333;}
</style>
<g>
	<path class="st0" d="M18.99,4.14c4.07,0,8.14,0,12.21,0c0.74,0,0.75,0.01,0.64,0.79c-0.47,3.39-3.19,5.76-6.62,5.77
		c-5.73,0.01-11.46,0-17.18,0c-0.84,0-0.84,0-0.84,0.82c0,4.36,0.01,8.73-0.01,13.09c0,0.48,0.11,0.64,0.62,0.64
		c2.35-0.03,4.7-0.02,7.05-0.01c3.46,0.01,6.29,2.68,6.54,6.14c0.04,0.6-0.33,0.46-0.63,0.46c-5.54,0-11.08,0-16.62,0
		c-1.01,0-2.01-0.02-3.02,0.01c-0.38,0.01-0.5-0.11-0.5-0.49c0.01-6.97-0.03-13.93,0.02-20.9c0.03-3.53,2.96-6.31,6.51-6.32
		C11.1,4.14,15.04,4.14,18.99,4.14z"/>
	<path class="st1" d="M53.08,12.31c0-0.51,0.02-0.91-0.01-1.31c-0.02-0.34,0.11-0.42,0.43-0.42c1.09,0.02,2.18,0.02,3.27,0
		c0.36-0.01,0.4,0.14,0.4,0.44c-0.01,4.17,0,8.35-0.01,12.52c0,0.71-0.11,1.42-0.27,2.12c-0.58,2.51-2.12,4.16-4.59,4.83
		c-3.25,0.88-6.44,0.6-9.5-0.81c-1.31-0.6-1.29-0.64-0.62-1.86c0.29-0.53,0.61-1.05,0.88-1.59c0.17-0.36,0.3-0.37,0.64-0.15
		c1.79,1.18,3.78,1.59,5.88,1.35c2.17-0.25,3.19-1.47,3.3-3.79c0.01-0.18,0-0.37,0-0.68c-2.09,1.84-4.45,2.09-6.94,1.44
		c-1.68-0.44-3.02-1.41-3.99-2.87c-1.89-2.83-1.41-6.89,1.03-9.22C45.22,10.15,50.17,9.36,53.08,12.31z M45.2,17.52
		c0,2.12,1.57,3.62,3.81,3.63c2.31,0.01,3.9-1.45,3.91-3.6c0.01-2.14-1.59-3.64-3.88-3.62C46.77,13.93,45.2,15.4,45.2,17.52z"/>
	<path class="st0" d="M31.87,20.46c0,1.64,0,3.27,0,4.91c-0.01,3.36-2.74,6.23-6.09,6.45c-0.5,0.03-0.48-0.21-0.48-0.55
		c0.01-3.1-0.01-6.21,0.02-9.31c0-0.54-0.1-0.71-0.68-0.71c-3.33,0.03-6.67,0-10,0.03c-0.54,0-0.62-0.16-0.56-0.65
		c0.41-3.44,3.06-5.91,6.52-5.95c3.59-0.04,7.17,0,10.76-0.02c0.47,0,0.54,0.18,0.53,0.59C31.86,16.98,31.87,18.72,31.87,20.46z"/>
	<path class="st1" d="M76.64,25.65c-3.39-0.09-6.01-1.26-7.53-4.2c-2.45-4.73,0.65-10.4,5.94-10.99c2.73-0.3,5.25,0.16,7.28,2.12
		c2.23,2.14,2.72,4.82,1.9,7.69c-0.83,2.91-2.96,4.52-5.85,5.17C77.75,25.57,77.1,25.59,76.64,25.65z M76.44,22.06
		c2.23,0,3.75-1.65,3.76-4.05c0-2.42-1.5-4.07-3.73-4.08c-2.23-0.02-3.81,1.68-3.81,4.09C72.67,20.39,74.23,22.06,76.44,22.06z"/>
	<path class="st2" d="M128.71,23.8c-2.09,1.93-4.45,2.22-6.97,1.45c-2.31-0.7-3.75-2.58-3.85-5.19c-0.11-3.04-0.04-6.08-0.06-9.12
		c0-0.27,0.07-0.37,0.35-0.36c1.2,0.01,2.39,0.02,3.59,0c0.47-0.01,0.37,0.28,0.37,0.53c0,2.37,0,4.74,0,7.11
		c0,0.33,0.01,0.67,0.06,1c0.27,1.74,1.16,2.6,2.78,2.68c1.61,0.08,2.9-0.86,3.33-2.41c0.13-0.49,0.18-0.99,0.18-1.49
		c0-2.29,0.01-4.57-0.01-6.86c0-0.43,0.1-0.58,0.55-0.56c1.11,0.03,2.22,0.02,3.33,0.01c0.32,0,0.48,0.03,0.48,0.42
		c-0.01,4.66-0.01,9.31,0,13.97c0,0.35-0.09,0.47-0.46,0.46c-1.07-0.02-2.14-0.03-3.21,0c-0.4,0.01-0.51-0.13-0.48-0.51
		C128.74,24.58,128.71,24.23,128.71,23.8z"/>
	<path class="st1" d="M141.39,22.06c2.38,0,4.71,0.02,7.03-0.01c0.49-0.01,0.6,0.14,0.58,0.6c-0.04,0.8-0.02,1.59,0,2.39
		c0.01,0.3-0.08,0.39-0.39,0.39c-4.13-0.01-8.26-0.01-12.39,0c-0.37,0-0.49-0.13-0.45-0.47c0.01-0.04,0.01-0.08,0-0.13
		c-0.23-1.43,0.3-2.51,1.27-3.59c2.11-2.32,4.08-4.78,6.13-7.21c-0.22-0.17-0.46-0.11-0.67-0.11c-1.99-0.01-3.98-0.02-5.98,0.01
		c-0.43,0-0.59-0.09-0.56-0.55c0.04-0.79,0.02-1.59,0-2.39c-0.01-0.33,0.09-0.42,0.42-0.42c3.98,0.01,7.97,0.01,11.95,0
		c0.28,0,0.45,0.05,0.4,0.37c-0.01,0.04-0.01,0.08,0,0.13c0.22,1.46-0.26,2.6-1.28,3.71c-1.98,2.16-3.82,4.45-5.71,6.7
		C141.62,21.64,141.44,21.76,141.39,22.06z"/>
	<path class="st2" d="M95.81,21.65c0.36,0.94,0.68,1.82,1.03,2.69c0.11,0.26,0.06,0.39-0.18,0.55c-1.85,1.15-5.41,0.94-7.1-0.43
		c-1.18-0.96-1.6-2.28-1.63-3.73c-0.05-1.99-0.04-3.98-0.02-5.97c0-0.4-0.09-0.55-0.51-0.52c-0.56,0.03-1.31,0.2-1.64-0.08
		c-0.38-0.33-0.11-1.1-0.11-1.68c0-0.49-0.23-1.15,0.1-1.44c0.28-0.24,0.92-0.13,1.39-0.07c0.66,0.08,0.82-0.17,0.77-0.79
		c-0.06-0.79,0.01-1.59-0.02-2.39c-0.02-0.41,0.13-0.48,0.5-0.48c1.11,0.02,2.22,0.03,3.33,0c0.47-0.02,0.55,0.17,0.54,0.58
		c-0.03,0.86,0.01,1.72-0.02,2.58c-0.01,0.39,0.12,0.5,0.5,0.49c0.92-0.02,1.84,0,2.77-0.01c0.32-0.01,0.44,0.09,0.43,0.43
		c-0.02,0.82-0.02,1.64,0,2.45c0.01,0.33-0.09,0.44-0.42,0.43c-0.92-0.02-1.85,0.02-2.77-0.02c-0.42-0.02-0.52,0.13-0.52,0.53
		c0.02,1.76,0.06,3.52,0,5.28c-0.07,1.92,1.35,2.5,2.91,1.95C95.36,21.91,95.56,21.78,95.81,21.65z"/>
	<path class="st1" d="M61.14,15.18c0-3.17,0.02-6.34-0.02-9.5c-0.01-0.6,0.18-0.73,0.74-0.71c1.05,0.04,2.1,0.02,3.15,0.01
		c0.35-0.01,0.47,0.1,0.47,0.46c-0.01,6.5-0.01,13.01,0,19.51c0,0.4-0.14,0.49-0.51,0.48c-1.07-0.02-2.14-0.03-3.21,0
		c-0.49,0.02-0.63-0.12-0.63-0.62C61.15,21.6,61.14,18.39,61.14,15.18z"/>
	<path class="st1" d="M103.49,12.44c1.27-1.48,2.81-1.94,4.52-2.07c0.4-0.03,0.56,0.02,0.55,0.47c-0.03,1.03-0.03,2.06,0,3.08
		c0.01,0.38-0.13,0.47-0.47,0.42c-0.52-0.09-1.05-0.04-1.56,0.07c-1.84,0.39-2.85,1.73-2.87,3.81c-0.02,2.18-0.02,4.36,0.01,6.54
		c0.01,0.5-0.09,0.7-0.64,0.67c-1.05-0.05-2.1-0.03-3.14-0.01c-0.39,0.01-0.54-0.07-0.54-0.51c0.02-4.61,0.01-9.23,0-13.84
		c0-0.35,0.04-0.52,0.46-0.51c1.07,0.03,2.14,0.03,3.21,0c0.41-0.01,0.5,0.14,0.48,0.51C103.47,11.47,103.49,11.87,103.49,12.44z"/>
	<path class="st1" d="M115.22,22.94c-0.01,1.56-1.15,2.71-2.7,2.69c-1.53-0.01-2.67-1.19-2.66-2.74c0.01-1.53,1.13-2.63,2.68-2.63
		C114.14,20.26,115.23,21.35,115.22,22.94z"/>
</g>
</svg>
